<svg width="15" height="15" viewBox="0 0 15 15" fill="none" xmlns="http://www.w3.org/2000/svg">
<path d="M1.875 3.75C1.66789 3.75 1.5 3.91789 1.5 4.125C1.5 4.33211 1.66789 4.5 1.875 4.5H13.125C13.3321 4.5 13.5 4.33211 13.5 4.125C13.5 3.91789 13.3321 3.75 13.125 3.75H1.875Z" fill="white"/>
<path d="M1.875 6C1.66789 6 1.5 6.16789 1.5 6.375C1.5 6.58211 1.66789 6.75 1.875 6.75H13.125C13.3321 6.75 13.5 6.58211 13.5 6.375C13.5 6.16789 13.3321 6 13.125 6H1.875Z" fill="white"/>
<path d="M1.5 8.625C1.5 8.41792 1.66789 8.25 1.875 8.25H13.125C13.3321 8.25 13.5 8.41792 13.5 8.625C13.5 8.83208 13.3321 9 13.125 9H1.875C1.66789 9 1.5 8.83208 1.5 8.625Z" fill="white"/>
<path d="M1.875 10.5C1.66789 10.5 1.5 10.6679 1.5 10.875C1.5 11.0821 1.66789 11.25 1.875 11.25H9.375C9.58208 11.25 9.75 11.0821 9.75 10.875C9.75 10.6679 9.58208 10.5 9.375 10.5H1.875Z" fill="white"/>
</svg>
