<svg width="14" height="15" viewBox="0 0 14 15" fill="none" xmlns="http://www.w3.org/2000/svg">
<path d="M11.5131 4.56348C11.5131 4.43408 11.618 4.3291 11.7474 4.3291C11.8768 4.3291 11.9818 4.43456 11.9818 4.56348V13.5547C11.9818 13.9517 11.8187 14.313 11.557 14.5752C11.2953 14.8369 10.9334 15 10.5365 15H3.27088C2.8739 15 2.5116 14.8369 2.25036 14.5752C1.98865 14.3135 1.82556 13.9522 1.82556 13.5547V4.56348C1.82556 4.43408 1.93054 4.3291 2.05992 4.3291C2.18932 4.3291 2.2943 4.43456 2.2943 4.56348V13.5547C2.2943 13.8223 2.40467 14.0669 2.58142 14.2437C2.75817 14.4204 3.00281 14.5312 3.27038 14.5312H10.536C10.8036 14.5312 11.0477 14.4204 11.2245 14.2437C11.4018 14.0664 11.5121 13.8223 11.5121 13.5552V4.56348H11.5131Z" fill="white"/>
<path d="M5.15565 12.9492C5.15565 13.0786 5.05067 13.1836 4.92127 13.1836C4.79187 13.1836 4.68689 13.0786 4.68689 12.9492V4.62403C4.68689 4.49463 4.79187 4.38965 4.92127 4.38965C5.05067 4.38965 5.15565 4.49463 5.15565 4.62403V12.9492Z" fill="white"/>
<path d="M7.13805 12.9492C7.13805 13.0786 7.03309 13.1836 6.90369 13.1836C6.77429 13.1836 6.66931 13.0786 6.66931 12.9492V4.62403C6.66931 4.49463 6.77429 4.38965 6.90369 4.38965C7.03309 4.38965 7.13805 4.49463 7.13805 4.62403V12.9492Z" fill="white"/>
<path d="M9.12106 12.9492C9.12106 13.0786 9.01612 13.1836 8.88672 13.1836C8.75731 13.1836 8.65234 13.0786 8.65234 12.9492V4.62403C8.65234 4.49463 8.75731 4.38965 8.88672 4.38965C9.01612 4.38965 9.12106 4.49463 9.12106 4.62403V12.9492Z" fill="white"/>
<path d="M5.01891 1.44531C5.01891 1.57471 4.91393 1.67969 4.78453 1.67969C4.65515 1.67969 4.55017 1.57471 4.55017 1.44531C4.55017 1.04736 4.71276 0.686043 4.9745 0.424327C5.23621 0.162591 5.59755 0 5.99549 0H7.8119C8.20936 0 8.57069 0.163084 8.83237 0.4248C9.09408 0.686515 9.25719 1.04881 9.25719 1.44531C9.25719 1.57471 9.15223 1.67969 9.02283 1.67969C8.89343 1.67969 8.78847 1.57471 8.78847 1.44531C8.78847 1.17774 8.67812 0.933104 8.50135 0.756353C8.32456 0.579581 8.07996 0.468741 7.81239 0.468741H5.996C5.72793 0.468741 5.48379 0.579087 5.30654 0.755859C5.12926 0.933104 5.01891 1.17725 5.01891 1.44531Z" fill="white"/>
<path d="M1.45446 2.11914H12.3529C12.5829 2.11914 12.7928 2.21337 12.9452 2.36573L12.9461 2.36672C13.0985 2.51905 13.1927 2.72902 13.1927 2.959V3.56448C13.1927 3.69385 13.0878 3.79884 12.9584 3.79884H12.952H0.849005C0.719606 3.79884 0.614624 3.69385 0.614624 3.56448V3.55862V2.959C0.614624 2.72951 0.708857 2.51905 0.861213 2.36672L0.862199 2.36573C1.01453 2.21339 1.22497 2.11914 1.45446 2.11914ZM12.3529 2.5879H1.45446C1.35242 2.5879 1.25915 2.62942 1.19275 2.6963L1.19176 2.69728C1.12486 2.76367 1.08337 2.85646 1.08337 2.959V3.33009H12.7235V2.959C12.7235 2.85695 12.682 2.76369 12.6151 2.69728L12.6141 2.6963C12.5478 2.62942 12.455 2.5879 12.3529 2.5879Z" fill="white"/>
</svg>
